Coordinates
nRows=115
nColumns=2
inDegrees=yes
endheader
time	ankle_angle_r	
2.6875	 -5.294516	
2.75	 -5.270572	
2.8125	 -5.270764	
2.875	 -5.266048	
2.9375	 -5.256191	
3	 -5.264417	
3.0625	 -5.250989	
3.125	 -5.244600	
3.1875	 -5.267717	
3.25	 -5.218940	
3.3125	 -5.156161	
3.375	 -5.173985	
3.4375	 -5.203070	
3.5	 -5.233671	
3.5625	 -5.237543	
3.625	 -5.190595	
3.6875	 -5.169207	
3.75	 -5.139608	
3.8125	 -5.119507	
3.875	 -5.181301	
3.9375	 -5.215362	
4	 -5.193004	
4.0625	 -5.192871	
4.125	 -5.201432	
4.1875	 -5.209253	
4.25	 -5.206971	
4.3125	 -5.161435	
4.375	 -5.111426	
4.4375	 -5.137804	
4.5	 -5.195949	
4.5625	 -5.172662	
4.625	 -5.147871	
4.6875	 -5.201230	
4.75	 -5.202743	
4.8125	 -5.141007	
4.875	 -5.131832	
4.9375	 -5.178696	
5	 -5.252711	
5.0625	 -5.305108	
5.125	 -5.293670	
5.1875	 -5.276501	
5.25	 -5.280187	
5.3125	 -5.265476	
5.375	 -5.247843	
5.4375	 -5.250875	
5.5	 -5.264519	
5.5625	 -5.280018	
5.625	 -5.284594	
5.6875	 -5.287590	
5.75	 -5.285707	
5.8125	 -5.261549	
5.875	 -5.254652	
5.9375	 -5.261469	
6	 -5.246382	
6.0625	 -5.257294	
6.125	 -5.289953	
6.1875	 -5.285547	
6.25	 -5.254822	
6.3125	 -5.209900	
6.375	 -5.183277	
6.4375	 -5.188235	
6.5	 -5.164773	
6.5625	 -5.148143	
6.625	 -5.183581	
6.6875	 -5.219766	
6.75	 -5.242831	
6.8125	 -5.259174	
6.875	 -5.237850	
6.9375	 -5.147728	
7	 -5.079153	
7.0625	 -5.143859	
7.125	 -5.212838	
7.1875	 -5.193846	
7.25	 -5.198427	
7.3125	 -5.193913	
7.375	 -5.136288	
7.4375	 -5.144684	
7.5	 -5.193771	
7.5625	 -5.182824	
7.625	 -5.159331	
7.6875	 -5.182805	
7.75	 -5.234562	
7.8125	 -5.233511	
7.875	 -5.162999	
7.9375	 -5.151538	
8	 -5.211992	
8.0625	 -5.238847	
8.125	 -5.251919	
8.1875	 -5.272138	
8.25	 -5.277146	
8.3125	 -5.289561	
8.375	 -5.288493	
8.4375	 -5.264748	
8.5	 -5.250662	
8.5625	 -5.241098	
8.625	 -5.252204	
8.6875	 -5.284491	
8.75	 -5.299548	
8.8125	 -5.302706	
8.875	 -5.289876	
8.9375	 -5.258140	
9	 -5.238857	
9.0625	 -5.227425	
9.125	 -5.224347	
9.1875	 -5.246557	
9.25	 -5.258249	
9.3125	 -5.235043	
9.375	 -5.203803	
9.4375	 -5.181130	
9.5	 -5.157839	
9.5625	 -5.128880	
9.625	 -5.124524	
9.6875	 -5.140324	
9.75	 -5.140071	
9.8125	 -5.142277	
